<svg width="200" height="200" viewBox="0 0 200 200" fill="none" xmlns="http://www.w3.org/2000/svg">
<path fill-rule="evenodd" clip-rule="evenodd" d="M160 10H40C23.4315 10 10 23.4315 10 40V160C10 176.569 23.4315 190 40 190H160C176.569 190 190 176.569 190 160V40C190 23.4315 176.569 10 160 10ZM40 0C17.9086 0 0 17.9086 0 40V160C0 182.091 17.9086 200 40 200H160C182.091 200 200 182.091 200 160V40C200 17.9086 182.091 0 160 0H40ZM100 140C122.091 140 140 122.091 140 100C140 77.9086 122.091 60 100 60C77.9086 60 60 77.9086 60 100C60 122.091 77.9086 140 100 140ZM100 150C127.614 150 150 127.614 150 100C150 72.3858 127.614 50 100 50C72.3858 50 50 72.3858 50 100C50 127.614 72.3858 150 100 150ZM162 50C168.627 50 174 44.6274 174 38C174 31.3726 168.627 26 162 26C155.373 26 150 31.3726 150 38C150 44.6274 155.373 50 162 50Z" fill="white"/>
</svg>
