<svg width="208" height="230" viewBox="0 0 208 230" fill="none" xmlns="http://www.w3.org/2000/svg">
<g clip-path="url(#clip0_653_10)">
<path d="M108.22 5.97998V89.68C128.34 100.26 143.03 119.81 146.92 142.99V65.77C125.26 54.04 110.09 31.82 108.22 5.97998Z" fill="white" stroke="white" stroke-miterlimit="10"/>
<path d="M108.22 155.32C108.22 174.3 92.94 189.69 74.09 189.69C55.24 189.69 39.96 174.3 39.96 155.32C39.96 136.34 55.24 120.95 74.09 120.95C81.58 120.95 88.5 123.39 94.12 127.5V84.01C87.75 82.19 81.03 81.2 74.09 81.2C33.51 81.2 0.5 114.45 0.5 155.32C0.5 196.19 33.51 229.44 74.09 229.44C114.67 229.44 146.95 196.58 146.95 155.71C146.95 151.51 147.32 147.01 146.65 143V155.33H108.22V155.32Z" fill="white" stroke="white" stroke-miterlimit="10"/>
<path d="M108.22 89.6799V155.32H146.92V142.99C143.02 119.81 128.34 100.26 108.22 89.6799Z" fill="white" stroke="white" stroke-miterlimit="10"/>
<path d="M146.92 13.6499V65.7699C165.01 70.4799 185.28 73.4799 206.79 74.3799V41.2499C176.59 39.1299 152.53 27.9499 146.92 13.6499Z" fill="white" stroke="white" stroke-miterlimit="10"/>
<path d="M146.32 7.25C146.32 5.06 146.53 2.93 146.92 0.86V0.5H108.22V5.98C110.1 31.82 125.27 54.04 146.92 65.77V13.65C146.53 11.58 146.32 9.44 146.32 7.26V7.25Z" fill="white" stroke="white" stroke-miterlimit="10"/>
</g>
<defs>
<clipPath id="clip0_653_10">
<rect width="207.29" height="229.94" fill="white"/>
</clipPath>
</defs>
</svg>
